Coordinates
version=1
nRows=9
nColumns=24
inDegrees=yes

Units are S.I. units (second, meters, Newtons, ...)
Angles are in degrees.

endheader
time	pelvis_tilt	pelvis_list	pelvis_rotation	pelvis_tx	pelvis_ty	pelvis_tz	hip_flexion_r	hip_adduction_r	hip_rotation_r	knee_angle_r	ankle_angle_r	subtalar_angle_r	mtp_angle_r	hip_flexion_l	hip_adduction_l	hip_rotation_l	knee_angle_l	ankle_angle_l	subtalar_angle_l	mtp_angle_l	lumbar_extension	lumbar_bending	lumbar_rotation
      4.12000000	     34.15770178	      0.74443680	      3.10525292	     -0.29531371	      0.64898247	     -0.26350073	    -52.56149985	      5.47185576	     -7.68905786	    -14.71720464	     21.08443130	     12.04249163	      0.00000000	    -10.39700766	      0.78802040	     -9.60655941	     -3.49721634	      5.79701521	     14.82062140	      0.00000000	    -60.70383586	     -1.07441115	      7.92185747
      4.12500000	     34.32851743	      0.64512512	      2.68464608	     -0.28840812	      0.64909051	     -0.26324336	    -52.46399615	      5.03363875	     -7.62356095	    -16.42613322	     20.13704088	     12.40388897	      0.00000000	    -10.54137645	      0.74873911	     -9.15122667	     -4.39194993	      5.28997466	     14.25454463	      0.00000000	    -60.76123920	     -1.46145073	      8.31019640
      4.13000000	     34.50384140	      0.55964983	      2.19927642	     -0.28148236	      0.64925689	     -0.26294702	    -52.29235310	      4.52020486	     -7.53168143	    -18.24722724	     19.09720322	     12.70841360	      0.00000000	    -10.64549187	      0.74867133	     -8.63921434	     -5.51261955	      4.85755974	     13.42629821	      0.00000000	    -60.81672947	     -1.91160071	      8.75486286
      4.13500000	     34.68099574	      0.50251638	      1.75642818	     -0.27456628	      0.64949469	     -0.26268282	    -52.03421375	      4.00356952	     -7.53556713	    -20.18705577	     17.83826680	     12.97833396	      0.00000000	    -10.74642584	      0.78482034	     -8.12157946	     -6.72194178	      4.38370950	     12.57417030	      0.00000000	    -60.88193655	     -2.34366084	      9.12903399
      4.14000000	     34.86106134	      0.46602569	      1.32837388	     -0.26764622	      0.64979136	     -0.26243122	    -51.69862441	      3.46625305	     -7.61752412	    -22.22012074	     16.38672124	     13.19783851	      0.00000000	    -10.83992016	      0.85761376	     -7.56818812	     -8.02965194	      3.93665293	     11.64032124	      0.00000000	    -60.94960133	     -2.77698494	      9.46257027
      4.14500000	     35.04024604	      0.45353904	      0.93100494	     -0.26072408	      0.65012905	     -0.26224304	    -51.28456724	      2.91404583	     -7.77544634	    -24.33565415	     14.72761557	     13.34591920	      0.00000000	    -10.92607428	      0.97607006	     -6.99681630	     -9.40794440	      3.54138056	     10.63102950	      0.00000000	    -61.01826445	     -3.19233468	      9.75753159
      4.15000000	     35.22505459	      0.47334189	      0.57089884	     -0.25379424	      0.65051219	     -0.26210674	    -50.80040593	      2.34826291	     -8.01035637	    -26.52166981	     12.85604044	     13.39951334	      0.00000000	    -11.03163781	      1.14533466	     -6.41591939	    -10.80885565	      3.21896064	      9.59365555	      0.00000000	    -61.09141062	     -3.58872838	     10.01113454
      4.15500000	     35.40387219	      0.49661041	      0.23222949	     -0.24687369	      0.65092777	     -0.26202773	    -50.24096305	      1.77003442	     -8.32449128	    -28.74824481	     10.79002077	     13.32556132	      0.00000000	    -11.13170877	      1.34046417	     -5.82127401	    -12.25011599	      3.00267611	      8.50304927	      0.00000000	    -61.15979767	     -3.96139008	     10.22022158
      4.16000000	     35.57658626	      0.53818989	     -0.06491776	     -0.23995864	      0.65137169	     -0.26201789	    -49.60581683	      1.18731051	     -8.71002545	    -31.01451745	      8.53898978	     13.10073694	      0.00000000	    -11.25123676	      1.57276241	     -5.21493546	    -13.66724342	      2.90030314	      7.39923079	      0.00000000	    -61.22394975	     -4.29799246	     10.38648402
